<?xml version="1.0" encoding="utf-8"?>
<!-- Generator: Adobe Illustrator 16.0.0, SVG Export Plug-In . SVG Version: 6.00 Build 0)  -->
<!DOCTYPE svg PUBLIC "-//W3C//DTD SVG 1.1//EN" "http://www.w3.org/Graphics/SVG/1.1/DTD/svg11.dtd">
<svg version="1.1" id="Layer_1" xmlns="http://www.w3.org/2000/svg" xmlns:xlink="http://www.w3.org/1999/xlink" x="0px" y="0px"
	 width="1316.828px" height="1451.339px" viewBox="0 0 1316.828 1451.339" enable-background="new 0 0 1316.828 1451.339"
	 xml:space="preserve">
<g>
	<path fill="#fff200" d="M1191.274,1101.584l125.554,46.347c-22.934,30.887-48.833,60.787-77.72,89.68
		c-141.508,142.508-312.908,213.729-514.183,213.729c-199.3,0-369.935-70.994-511.928-212.981C71.004,1096.351,0,925.21,0,724.922
		s71.004-371.175,212.998-512.689C354.991,70.767,525.625,0,724.926,0c201.274,0,372.675,70.767,514.183,212.233
		c28.887,28.927,54.786,58.82,77.72,89.688l-125.554,46.347c-12.967-15.934-26.906-31.88-41.854-47.84
		c-117.587-116.581-259.087-174.881-424.495-174.881c-164.407,0-305.167,58.554-422.248,175.627
		C185.584,418.274,127.051,559.521,127.051,724.922c0,165.42,58.533,306.674,175.627,423.749
		c117.081,117.1,257.841,175.627,422.248,175.627c165.408,0,306.908-58.794,424.495-176.367
		C1164.368,1132.983,1178.308,1117.544,1191.274,1101.584z"/>
</g>
</svg>
