<?xml version="1.0" encoding="utf-8"?>
<!-- Generator: Adobe Illustrator 16.0.0, SVG Export Plug-In . SVG Version: 6.00 Build 0)  -->
<!DOCTYPE svg PUBLIC "-//W3C//DTD SVG 1.1//EN" "http://www.w3.org/Graphics/SVG/1.1/DTD/svg11.dtd">
<svg version="1.1" id="Layer_1" xmlns="http://www.w3.org/2000/svg" xmlns:xlink="http://www.w3.org/1999/xlink" x="0px" y="0px"
	 width="1409.159px" height="1451.339px" viewBox="0 0 1409.159 1451.339" enable-background="new 0 0 1409.159 1451.339"
	 xml:space="preserve">
<g>
	<path fill="#00adef" d="M645.216,0l-207.78,710.822C632.182,420.256,781.374,229.137,885.015,137.49
		C988.641,45.84,1088.354,0,1184.194,0c52.059,0,95.025,17.197,128.886,51.557c33.826,34.376,50.773,79.156,50.773,134.359
		c0,62.493-15.106,145.819-45.307,249.959l-190.6,657.711c-21.866,76.027-32.8,122.394-32.8,139.033
		c0,14.607,4.146,26.833,12.493,36.713c8.32,9.92,17.187,14.841,26.56,14.841c12.501,0,27.581-6.76,45.307-20.307
		c55.186-43.74,115.6-110.373,181.227-199.967l48.426,29.687c-96.866,138.52-188.525,237.459-274.959,296.833
		c-60.412,40.606-114.586,60.919-162.473,60.919c-38.553,0-69.28-11.72-92.18-35.158c-22.92-23.428-34.367-54.921-34.367-94.515
		c0-49.985,17.7-135.912,53.114-257.766l181.226-628.024c22.9-78.113,34.373-139.046,34.373-182.78
		c0-20.827-6.787-37.74-20.313-50.78c-13.54-13.007-30.22-19.53-49.993-19.53c-29.173,0-64.047,12.507-104.666,37.49
		c-77.086,46.867-157.279,124.2-240.587,232.006c-83.339,107.78-171.332,245.539-264.025,413.211
		c-48.966,88.534-89.58,185.399-121.853,290.587l-78.12,257.766H0l284.336-977.971c33.32-117.693,49.987-188.499,49.987-212.466
		c0-22.899-9.127-42.96-27.333-60.156c-18.234-17.18-40.894-25.763-67.96-25.763c-12.5,0-34.374,2.086-65.613,6.247l-59.374,9.376
		l-9.373-56.247L645.216,0z"/>
</g>
</svg>
